<?xml version="1.0" encoding="utf-8"?>
<!-- Generator: Adobe Illustrator 25.0.1, SVG Export Plug-In . SVG Version: 6.00 Build 0)  -->
<svg version="1.1" id="Layer_1" xmlns="http://www.w3.org/2000/svg" xmlns:xlink="http://www.w3.org/1999/xlink" x="0px" y="0px"
	 viewBox="0 0 50 47.6" style="enable-background:new 0 0 50 47.6;" xml:space="preserve">
<style type="text/css">
	.st0{fill:#111111;}
	.st1{fill:#AC1F5F;}
</style>
<g id="Layer_2_1_">
	<g id="Forward_2">
		<path class="st0" d="M49.7,21.5c0,0.1,0.1,0.2,0.1,0.2c0,0.1,0,0.2,0.1,0.2c0,0.1,0,0.1,0.1,0.2c0.1,0.3,0.1,0.7,0,1
			c0,0.1,0,0.1-0.1,0.2c0,0.1,0,0.2-0.1,0.3s-0.1,0.2-0.1,0.2c0,0.1-0.1,0.1-0.1,0.2c-0.2,0.3-0.4,0.5-0.7,0.7l-0.2,0.1
			c-0.1,0-0.2,0.1-0.2,0.1c-0.1,0-0.2,0.1-0.3,0.1L48,25.2c-0.2,0-0.3,0.1-0.5,0h-45c-1.4,0-2.5-1.1-2.5-2.5s1.1-2.5,2.5-2.5h39
			l-16-15.9c-1-1-1-2.6,0-3.5c1-1,2.6-1,3.5,0l20.2,20.2c0.1,0.1,0.2,0.3,0.3,0.4C49.6,21.4,49.7,21.4,49.7,21.5z"/>
		<path class="st1" d="M25.4,43.3l15.4-15.4c1-1,2.6-1,3.5,0l0,0c1,1,1,2.6,0,3.5L28.9,46.8c-1,1-2.6,1-3.5,0l0,0
			C24.4,45.9,24.4,44.3,25.4,43.3z"/>
	</g>
</g>
</svg>
